PathFileType	4	(X/Y/Z)	D:\walkingproject\041602jb\041602jb1.trc																																																																																		
DataRate	CameraRate	NumFrames	NumMarkers	Units	OrigDataRate	OrigDataStartFrame	OrigNumFrames																																																																														
120	120	10	28	mm	120	181	240																																																																														
Frame#	Time	head vertex			right ear			left ear			r scapula			right shoulder			left shoulder			sacrum			right elbow			right wrist			left elbow			left wrist			right g. trochanter			rigth mid-thigh			right knee			right tibia			right ankle			right heel			right mth			left g. trochanter			left mid-thigh			left knee			left tibia			left ankle			left heel			left mth			slider			fixed 1			fixed 2		
		X1	Y1	Z1	X2	Y2	Z2	X3	Y3	Z3	X4	Y4	Z4	X5	Y5	Z5	X6	Y6	Z6	X7	Y7	Z7	X8	Y8	Z8	X9	Y9	Z9	X10	Y10	Z10	X11	Y11	Z11	X12	Y12	Z12	X13	Y13	Z13	X14	Y14	Z14	X15	Y15	Z15	X16	Y16	Z16	X17	Y17	Z17	X18	Y18	Z18	X19	Y19	Z19	X20	Y20	Z20	X21	Y21	Z21	X22	Y22	Z22	X23	Y23	Z23	X24	Y24	Z24	X25	Y25	Z25	X26	Y26	Z26	X27	Y27	Z27	X28	Y28	Z28
																																																																																					
181	1.5	349.07822	247.52211	1727.83057	403.98297	151.1115	1622.68445	400.26154	363.47696	1633.97864	239.14471	178.22087	1331.36768	383.69254	16.48309	1345.35193	381.90506	498.9805	1365.74805	290.74603	257.1795	984.34723	387.30978	-29.65723	1110.59094	618.84247	22.59792	1156.90198	414.78491	544.40485	1102.61963	619.65216	458.49835	1158.58398	430.91803	57.03851	880.01343				359.51953	80.76112	479.2757	389.74646	134.73021	228.75128	343.81305	123.35787	95.28453	255.05458	164.73804	38.36623	452.38889	83.77427	13.14709	449.2016	456.78598	866.46924				380.43616	419.05084	481.31644	410.82443	390.49066	336.71927	336.18735	371.80756	92.32047	260.23984	324.35254	36.48975	448.19611	414.83151	2.56801	965.91101	-21.14479	9.93127	1955.65491	-11.8066	-14.00936	-4.60406	1.00681	9.24365
182	1.508	349.26273	247.66512	1727.9989	404.491	150.95081	1622.70752	400.26154	363.47696	1633.97864	239.14471	178.22087	1331.36768	383.69254	16.48309	1345.35193	381.90506	498.9805	1365.74805	290.74603	257.1795	984.34723	387.79852	-29.7739	1110.84216	618.84247	22.59792	1156.90198	414.78491	544.40485	1102.61963	619.65216	458.49835	1158.58398	430.91803	57.03851	880.01343				359.51953	80.76112	479.2757	389.74646	134.73021	228.75128	343.81305	123.35787	95.28453	255.02554	165.02025	38.16899	452.17593	84.10741	13.37262	449.2016	456.78598	866.46924				380.26514	419.54578	481.68802	410.82443	390.49066	336.71927	336.18735	371.80756	92.32047	260.23984	324.35254	36.48975	447.66922	415.13538	2.67758	965.91101	-21.14479	9.93127	1955.65491	-11.8066	-14.00936	-4.60406	1.00681	9.24365
183	1.517	348.92096	247.14612	1727.87964	404.491	150.95081	1622.70752	400.22021	363.15726	1634.00781	239.14471	178.22087	1331.36768	383.69254	16.48309	1345.35193	381.90506	498.9805	1365.74805	290.74603	257.1795	984.34723	387.30978	-29.65723	1110.59094	618.65997	21.75795	1156.84949	414.78491	544.40485	1102.61963	619.65216	458.49835	1158.58398	430.91803	57.03851	880.01343				359.49329	80.6213	478.91141	389.74646	134.73021	228.75128	343.81305	123.35787	95.28453	255.05458	164.73804	38.36623	452.17593	84.10741	13.37262	449.2016	456.78598	866.46924				380.43616	419.05084	481.31644	410.82443	390.49066	336.71927	336.18735	371.80756	92.32047	260.23984	324.35254	36.48975	448.23346	415.12891	2.60063	965.49023	-21.21316	10.06525	1955.65491	-11.8066	-14.00936	-4.60406	1.00681	9.24365
184	1.525	349.07822	247.52211	1727.83057	404.491	150.95081	1622.70752	400.29422	362.7319	1633.79968	239.14471	178.22087	1331.36768	383.69254	16.48309	1345.35193	381.90506	498.9805	1365.74805	290.74603	257.1795	984.34723	387.79852	-29.7739	1110.84216	618.84247	22.59792	1156.90198	414.78491	544.40485	1102.61963	619.65216	458.49835	1158.58398	430.91803	57.03851	880.01343				359.51953	80.76112	479.2757	389.74646	134.73021	228.75128	343.81305	123.35787	95.28453	255.02554	165.02025	38.16899	452.17593	84.10741	13.37262	449.2016	456.78598	866.46924				380.26514	419.54578	481.68802	410.65518	390.8782	337.01077	336.18735	371.80756	92.32047	260.23984	324.35254	36.48975	448.23346	415.12891	2.60063	965.91101	-21.14479	9.93127	1955.65491	-11.8066	-14.00936	-4.2835	0.95118	8.9866
185	1.533	349.10547	247.28911	1728.04797	404.491	150.95081	1622.70752	400.29422	362.7319	1633.79968	239.14471	178.22087	1331.36768	384.07025	16.45744	1345.57446	381.90506	498.9805	1365.74805	290.74603	257.1795	984.34723	387.30978	-29.65723	1110.59094	618.65997	21.75795	1156.84949	414.78491	544.40485	1102.61963	619.65216	458.49835	1158.58398	430.91803	57.03851	880.01343				359.49329	80.6213	478.91141	389.74646	134.73021	228.75128	343.81305	123.35787	95.28453	255.02554	165.02025	38.16899	452.38889	83.77427	13.14709	449.2016	456.78598	866.46924				379.96771	419.03714	481.59756	410.82443	390.49066	336.71927	336.18735	371.80756	92.32047	260.23984	324.35254	36.48975	447.66922	415.13538	2.67758	965.91101	-21.14479	9.93127	1955.65491	-11.8066	-14.00936	-4.2835	0.95118	8.9866
186	1.542	349.26273	247.66512	1727.9989	404.491	150.95081	1622.70752	400.29422	362.7319	1633.79968	239.14471	178.22087	1331.36768	384.07025	16.45744	1345.57446	381.90506	498.9805	1365.74805	290.74603	257.1795	984.34723	387.79852	-29.7739	1110.84216	618.65997	21.75795	1156.84949	414.78491	544.40485	1102.61963	619.65216	458.49835	1158.58398	430.26196	56.69963	879.91028				359.49329	80.6213	478.91141	389.74646	134.73021	228.75128	343.81305	123.35787	95.28453	255.02554	165.02025	38.16899	452.38889	83.77427	13.14709	449.12659	456.80136	865.91626				380.43616	419.05084	481.31644	410.84439	391.16571	336.8241	336.18735	371.80756	92.32047	260.23984	324.35254	36.48975	447.66922	415.13538	2.67758	965.91101	-21.14479	9.93127	1956.15808	-11.79542	-13.62272	-4.2835	0.95118	8.9866
187	1.55	349.10547	247.28911	1728.04797	404.491	150.95081	1622.70752	400.56299	362.71661	1634.03674	239.14471	178.22087	1331.36768	384.07025	16.45744	1345.57446	381.90506	498.9805	1365.74805	290.74603	257.1795	984.34723	387.79852	-29.7739	1110.84216	618.91254	22.45594	1156.54785	414.78491	544.40485	1102.61963	619.65216	458.49835	1158.58398	430.26196	56.69963	879.91028				359.49329	80.6213	478.91141	389.80856	135.48361	228.73669	343.81305	123.35787	95.28453	255.02554	165.02025	38.16899	452.38889	83.77427	13.14709	449.2016	456.78598	866.46924				380.26514	419.54578	481.68802	410.84439	391.16571	336.8241	336.18735	371.80756	92.32047	260.23984	324.35254	36.48975	447.66922	415.13538	2.67758	965.67474	-21.40953	9.74698	1955.65491	-11.8066	-14.00936	-4.2835	0.95118	8.9866
188	1.558	349.10547	247.28911	1728.04797	404.491	150.95081	1622.70752	400.34976	363.03842	1633.74084	239.14471	178.22087	1331.36768	384.07025	16.45744	1345.57446	381.90506	498.9805	1365.74805	290.74603	257.1795	984.34723	387.88892	-29.83796	1110.48779	618.65997	21.75795	1156.84949	414.78491	544.40485	1102.61963	619.65216	458.49835	1158.58398	430.26196	56.69963	879.91028				359.49329	80.6213	478.91141	389.74646	134.73021	228.75128	343.81305	123.35787	95.28453	255.02554	165.02025	38.16899	452.38889	83.77427	13.14709	449.35809	456.74863	866.15973				380.26514	419.54578	481.68802	410.84439	391.16571	336.8241	336.18735	371.80756	92.32047	260.23984	324.35254	36.48975	448.19611	414.83151	2.56801	965.67474	-21.40953	9.74698	1955.65491	-11.8066	-14.00936	-4.2835	0.95118	8.9866
189	1.567	349.26273	247.66512	1727.9989	404.491	150.95081	1622.70752	400.29422	362.7319	1633.79968	239.14471	178.22087	1331.36768	384.51208	16.21196	1345.45532	382.35059	498.74454	1365.73572	290.74603	257.1795	984.34723	387.88892	-29.83796	1110.48779	618.65997	21.75795	1156.84949	414.78491	544.40485	1102.61963	619.65216	458.49835	1158.58398	430.26196	56.69963	879.91028				359.49329	80.6213	478.91141	389.74646	134.73021	228.75128	343.81305	123.35787	95.28453	255.02554	165.02025	38.16899	452.17593	84.10741	13.37262	449.12659	456.80136	865.91626				380.43616	419.05084	481.31644	410.84439	391.16571	336.8241	336.18735	371.80756	92.32047	260.23984	324.35254	36.48975	447.66922	415.13538	2.67758	965.91101	-21.14479	9.93127	1955.65491	-11.8066	-14.00936	-4.2835	0.95118	8.9866
190	1.575	349.44577	247.70453	1727.89063	404.491	150.95081	1622.70752	400.29422	362.7319	1633.79968	239.14471	178.22087	1331.36768	384.51208	16.21196	1345.45532	381.90506	498.9805	1365.74805	290.74603	257.1795	984.34723	387.88892	-29.83796	1110.48779	618.65997	21.75795	1156.84949	415.2215	544.14954	1102.75427	619.65216	458.49835	1158.58398	430.26196	56.69963	879.91028				359.49329	80.6213	478.91141	389.74646	134.73021	228.75128	343.81305	123.35787	95.28453	255.02554	165.02025	38.16899	452.38889	83.77427	13.14709	449.79578	456.49197	866.24133				380.26514	419.54578	481.68802	410.5426	391.13647	337.20517	336.18735	371.80756	92.32047	260.23984	324.35254	36.48975	447.66922	415.13538	2.67758	965.91101	-21.14479	9.93127	1955.65491	-11.8066	-14.00936	-4.2835	0.95118	8.9866
